<?xml version="1.0" encoding="UTF-8"?>
<svg id="Capa_2" data-name="Capa 2" xmlns="http://www.w3.org/2000/svg" viewBox="0 0 497.73 497.73">
  <defs>
    <style>
      .cls-1 {
        opacity: .5;
      }

      .cls-2 {
        opacity: .4;
      }

      .cls-3 {
        fill: #aac3d1;
      }

      .cls-4 {
        fill: #f2f2f2;
      }

      .cls-5 {
        fill: #92d5ce;
      }
    </style>
  </defs>
  <g id="Capa_1-2" data-name="Capa 1">
    <g class="cls-2">
      <path class="cls-5" d="M424.84,72.89C377.83,25.89,315.34,0,248.86,0S119.89,25.89,72.89,72.89C25.89,119.89,0,182.39,0,248.86s25.89,128.97,72.89,175.97c47,47,109.5,72.89,175.97,72.89s128.97-25.89,175.97-72.89c47-47,72.89-109.5,72.89-175.97s-25.89-128.97-72.89-175.97Zm-1.36,350.58c-46.64,46.64-108.65,72.33-174.61,72.33s-127.97-25.69-174.61-72.33C27.61,376.83,1.93,314.82,1.93,248.86S27.61,120.89,74.25,74.25C120.89,27.61,182.9,1.93,248.86,1.93s127.97,25.69,174.61,72.33c46.64,46.64,72.33,108.65,72.33,174.61s-25.69,127.97-72.33,174.61Z"/>
      <path class="cls-5" d="M396.05,101.67c-39.32-39.32-91.59-60.97-147.19-60.97s-107.88,21.65-147.19,60.97c-39.32,39.32-60.97,91.59-60.97,147.19s21.65,107.88,60.97,147.19c39.32,39.32,91.59,60.97,147.19,60.97s107.88-21.65,147.19-60.97c39.32-39.32,60.97-91.59,60.97-147.19s-21.65-107.88-60.97-147.19Zm-1.36,293.02c-38.95,38.95-90.74,60.4-145.83,60.4s-106.88-21.45-145.83-60.4c-38.95-38.95-60.4-90.74-60.4-145.83s21.45-106.88,60.4-145.83c38.95-38.95,90.74-60.4,145.83-60.4s106.88,21.45,145.83,60.4c38.95,38.95,60.4,90.74,60.4,145.83s-21.45,106.88-60.4,145.83Z"/>
      <path class="cls-5" d="M248.86,82.83c-91.55,0-166.03,74.48-166.03,166.03s74.48,166.03,166.03,166.03,166.03-74.48,166.03-166.03S340.41,82.83,248.86,82.83Zm0,330.14c-90.49,0-164.11-73.62-164.11-164.11S158.37,84.76,248.86,84.76s164.11,73.62,164.11,164.11-73.62,164.11-164.11,164.11Z"/>
      <path class="cls-5" d="M248.86,129.23c-65.96,0-119.63,53.67-119.63,119.63s53.67,119.63,119.63,119.63,119.63-53.67,119.63-119.63-53.66-119.63-119.63-119.63Zm0,237.33c-64.9,0-117.7-52.8-117.7-117.7s52.8-117.7,117.7-117.7,117.7,52.8,117.7,117.7-52.8,117.7-117.7,117.7Z"/>
    </g>
    <g>
      <path class="cls-4" d="M336.55,452.89c-15.19-32.83-10.42-76.37,13.46-103.61,13.36-15.23,22.52-24.36,37.72-37.57,16.99-14.77,30.82-33.88,39.99-55.25,9.17-21.38,13.49-44.56,12.48-67.05-1.01-22.49-7.37-45.2-18.42-65.67-11.04-20.47-26.52-38.27-44.76-51.46-26.07-18.85-59.65-30.01-94.56-31.4-36.85-1.47-61.29,1.23-92.58,20.07-6.72,4.05-29.59,18.43-41.61,33.46-10.96,13.7-22.29,27.88-29.2,44.21-1.39,3.28-2.64,6.74-3.84,10.09-3.03,8.39-6.15,17.06-11.89,24.26-7.11,8.93-16.64,15-25.85,20.87-3.29,2.1-6.7,4.27-9.94,6.53-4.3,3.01-7.98,5.82-9.48,9.71-1.88,4.9,.27,10.39,2.9,13.89,3.24,4.31,7.95,7.46,12.5,10.51,.46,.31,.8,.77,.96,1.3,.85,2.88,.92,5.15,.24,7.83-1.66,6.56-7.23,11.22-11.3,14.62-1.17,.98-.7,3.31,.23,5.06,1.02,1.91,3.06,3.29,5.21,3.51,1.2,.13,2.11,1.12,2.13,2.33,.02,1.2-.86,2.23-2.05,2.39-2.47,.34-5.47,2.42-6.55,4.56-1.1,2.18-1.06,4.99,.11,7.13,.52,.96,1.28,1.87,2.09,2.83,.7,.83,1.42,1.69,2.06,2.67,2.67,4.08,3.23,9.43,1.47,13.97-.51,1.32-1.05,2.66-1.6,4.02-3.59,8.93-7.3,18.17-5.2,26.73,2.03,8.29,8.93,15.8,18.93,20.59,7.29,3.49,15.47,5.39,23.37,7.21,1.95,.45,3.9,.9,5.84,1.38,4.24,1.04,7.55,1.75,10.47,2.38,10.38,2.24,14.26,3.08,27.95,11.72,12.44,7.84,21.64,20.33,27.34,37.12,3.41,10.03,5.52,21.66,6.11,33.65,0,.04,0,.08,0,.12v14.37l155.27-9.09Z"/>
      <g>
        <path class="cls-3" d="M425.96,121.48c-11.38-21.1-27.34-39.44-46.16-53.05-26.82-19.4-61.32-30.87-97.15-32.3-31.18-1.25-59.87-.55-95.22,20.75-6.89,4.15-30.36,18.91-42.87,34.57-11.16,13.96-22.7,28.39-29.86,45.33-1.44,3.4-2.71,6.92-3.94,10.33-3.03,8.4-5.89,16.33-11.13,22.92-6.61,8.31-15.39,13.9-24.69,19.82-3.34,2.13-6.78,4.32-10.11,6.65-4.03,2.82-9.06,6.33-11.19,11.91-2.15,5.61-.8,12.68,3.54,18.44,3.53,4.7,8.45,8.11,12.92,11.11,.4,1.65,.38,2.91-.03,4.51-1.19,4.69-5.11,8.27-9.74,12.14-2.83,2.37-3.19,6.66-.91,10.94,.76,1.42,1.82,2.66,3.07,3.63-1.88,1.29-3.48,2.97-4.39,4.78-1.82,3.59-1.75,8.02,.18,11.55,.75,1.38,1.7,2.51,2.62,3.6,.64,.76,1.24,1.48,1.73,2.22,1.84,2.82,2.23,6.52,1.02,9.66-.51,1.31-1.04,2.63-1.57,3.96-3.69,9.18-7.87,19.59-5.41,29.64,2.37,9.68,10.21,18.34,21.49,23.74,7.76,3.72,16.2,5.67,24.35,7.56,1.93,.45,3.87,.89,5.79,1.36,4.3,1.05,7.79,1.81,10.6,2.41,10.05,2.17,13.44,2.91,26.42,11.09,10.77,6.79,29.13,24.51,31.24,66.92v14.31h4.75v-14.37s0-.08,0-.12c-.59-11.99-2.7-23.63-6.11-33.65-5.7-16.79-14.9-29.27-27.34-37.12-13.69-8.63-17.57-9.47-27.95-11.72-2.92-.63-6.23-1.35-10.47-2.38-1.94-.47-3.89-.93-5.84-1.38-7.9-1.83-16.08-3.72-23.37-7.21-10-4.79-16.9-12.3-18.93-20.59-2.1-8.56,1.61-17.8,5.2-26.73,.54-1.35,1.08-2.69,1.6-4.02,1.76-4.54,1.2-9.9-1.47-13.97-.64-.98-1.36-1.84-2.06-2.67-.8-.96-1.56-1.86-2.09-2.83-1.17-2.15-1.21-4.95-.11-7.13,1.08-2.13,4.08-4.22,6.55-4.56,1.19-.16,2.07-1.19,2.05-2.39-.02-1.2-.93-2.2-2.13-2.33-2.15-.23-4.2-1.6-5.21-3.51-.93-1.75-1.4-4.08-.23-5.06,4.07-3.4,9.64-8.06,11.3-14.62,.68-2.68,.61-4.95-.24-7.83-.16-.53-.5-.99-.96-1.3-4.55-3.04-9.26-6.19-12.5-10.51-2.63-3.5-4.77-8.99-2.9-13.89,1.49-3.9,5.18-6.7,9.48-9.71,3.24-2.27,6.65-4.44,9.94-6.53,9.21-5.87,18.74-11.94,25.85-20.87,5.73-7.2,8.86-15.87,11.89-24.26,1.21-3.35,2.46-6.81,3.84-10.09,6.91-16.34,18.24-30.51,29.2-44.21,12.02-15.04,34.89-29.42,41.61-33.46,31.29-18.85,55.73-21.55,92.58-20.07,34.91,1.4,68.49,12.55,94.56,31.4,18.24,13.19,33.72,30.99,44.76,51.46,11.04,20.47,17.41,43.18,18.42,65.67,1.01,22.49-3.31,45.68-12.48,67.05-9.17,21.38-23,40.48-39.99,55.25-15.2,13.21-24.36,22.34-37.72,37.57-24.42,27.84-29.96,70.45-13.46,103.61l4.25-2.12c-15.66-31.48-10.4-71.93,12.78-98.36,13.2-15.05,22.25-24.07,37.27-37.12,17.53-15.24,31.79-34.93,41.24-56.96,9.45-22.03,13.9-45.94,12.86-69.14-1.04-23.2-7.6-46.62-18.98-67.71Z"/>
        <path class="cls-3" d="M168.11,210.88c-5.44,0-10.88-1.13-15.94-3.38-9.83-4.38-18.15-13-22.85-23.65-.53-1.2,.02-2.6,1.22-3.13,1.2-.53,2.6,.02,3.13,1.22,4.22,9.59,11.67,17.33,20.43,21.23,8.69,3.87,18.69,3.96,27.44,.24,1.21-.51,2.6,.05,3.12,1.26,.51,1.21-.05,2.6-1.26,3.12-4.87,2.07-10.08,3.11-15.29,3.11Z"/>
        <path class="cls-3" d="M97.03,146l-2.83-.9c.36-1.14,.74-2.29,1.13-3.42l2.81,.96c-.38,1.11-.75,2.23-1.11,3.35Zm2.29-6.67l-2.79-1.03c.41-1.11,.85-2.24,1.29-3.36l2.76,1.1c-.43,1.09-.86,2.2-1.26,3.29Zm2.61-6.56l-2.73-1.16c.46-1.09,.95-2.2,1.45-3.29l2.71,1.22c-.48,1.07-.96,2.16-1.42,3.23Zm2.91-6.43l-2.68-1.29c.52-1.08,1.06-2.16,1.6-3.22l2.65,1.35c-.53,1.04-1.06,2.11-1.57,3.16Zm3.21-6.29l-2.61-1.41c.56-1.05,1.15-2.11,1.74-3.15l2.58,1.47c-.58,1.02-1.16,2.06-1.71,3.09Zm3.49-6.13l-2.55-1.53c.61-1.02,1.25-2.05,1.89-3.06l2.51,1.59c-.63,.99-1.25,2.01-1.85,3.01Zm3.77-5.97l-2.47-1.64c.66-1,1.34-2,2.02-2.97l2.44,1.7c-.67,.96-1.34,1.94-1.99,2.92Zm4.04-5.79l-2.4-1.75c.7-.96,1.43-1.93,2.16-2.88l2.36,1.81c-.72,.93-1.43,1.88-2.12,2.83Zm4.3-5.6l-2.31-1.86c.75-.93,1.52-1.87,2.29-2.78l2.27,1.91c-.75,.89-1.51,1.81-2.24,2.73Zm4.55-5.4l-2.23-1.96c.79-.89,1.6-1.79,2.41-2.67l2.18,2.01c-.8,.86-1.59,1.74-2.36,2.62Zm4.79-5.19l-2.14-2.06c.83-.86,1.68-1.72,2.53-2.56l2.09,2.11c-.83,.82-1.67,1.67-2.48,2.51Zm5.02-4.96l-2.04-2.16c.86-.82,1.76-1.64,2.65-2.44l1.99,2.21c-.87,.79-1.75,1.59-2.59,2.39Zm5.24-4.73l-1.94-2.25c.91-.79,1.84-1.56,2.76-2.31l1.88,2.3c-.9,.74-1.81,1.5-2.7,2.27Zm5.46-4.47l-1.83-2.34c.95-.74,1.92-1.48,2.86-2.18l1.77,2.38c-.93,.69-1.87,1.41-2.81,2.14Zm5.66-4.21l-1.72-2.42c.97-.69,1.97-1.38,2.96-2.04l1.66,2.46c-.97,.65-1.95,1.33-2.9,2Z"/>
        <path class="cls-3" d="M315.21,417.26c-.22-1.19-.4-2.4-.56-3.6l2.95-.37c.14,1.14,.32,2.3,.53,3.44l-2.92,.53Zm-.91-7.23c-.09-1.2-.14-2.42-.16-3.64l2.97-.06c.02,1.16,.07,2.34,.16,3.48l-2.96,.21Zm2.83-7.18l-2.97-.09c.04-1.2,.11-2.42,.2-3.63l2.96,.24c-.09,1.16-.16,2.34-.2,3.49Zm.56-6.96l-2.95-.38c.15-1.19,.34-2.4,.54-3.59l2.93,.51c-.2,1.15-.38,2.31-.52,3.46Zm1.2-6.89l-2.9-.64c.26-1.18,.54-2.36,.85-3.52l2.87,.76c-.3,1.12-.57,2.27-.82,3.4Zm1.78-6.77l-2.84-.87c.35-1.15,.73-2.3,1.13-3.44l2.8,.98c-.39,1.1-.75,2.22-1.1,3.33Zm2.32-6.62l-2.76-1.09c.44-1.11,.9-2.23,1.39-3.34l2.72,1.19c-.47,1.08-.92,2.17-1.35,3.24Zm2.81-6.43l-2.68-1.29c.52-1.07,1.06-2.16,1.62-3.23l2.63,1.38c-.55,1.04-1.08,2.1-1.58,3.14Zm3.26-6.22l-2.58-1.46c.59-1.04,1.2-2.08,1.83-3.11l2.54,1.54c-.61,1-1.21,2.02-1.78,3.03Zm3.65-6.02l-2.49-1.62c.65-1,1.32-2,2-3l2.45,1.68c-.67,.97-1.33,1.96-1.96,2.93Zm3.99-5.81l-2.4-1.75c.69-.95,1.41-1.92,2.15-2.88l2.36,1.81c-.72,.95-1.43,1.9-2.11,2.83Zm4.29-5.6l-2.32-1.86c.75-.93,1.51-1.86,2.28-2.78l2.28,1.91c-.76,.9-1.5,1.81-2.24,2.73Zm4.54-5.42l-2.24-1.95c.79-.9,1.58-1.8,2.39-2.68l2.2,1.99c-.79,.87-1.58,1.75-2.35,2.64Zm4.75-5.25l-2.17-2.03c.82-.87,1.64-1.74,2.47-2.6l2.14,2.06c-.82,.85-1.63,1.7-2.44,2.57Zm4.92-5.1l-2.11-2.09c.84-.85,1.69-1.69,2.54-2.53l2.08,2.12c-.84,.83-1.68,1.66-2.52,2.5Zm5.06-4.97l-2.06-2.14,.63-.6c.65-.62,1.31-1.25,1.97-1.87l2.04,2.16c-.65,.61-1.3,1.23-1.95,1.85l-.62,.6Zm5.17-4.87l-2.02-2.18c.87-.81,1.75-1.62,2.63-2.42l2.01,2.19c-.87,.8-1.74,1.6-2.61,2.41Zm5.24-4.81l-2-2.2c.88-.8,1.76-1.6,2.65-2.39l1.99,2.21c-.88,.79-1.76,1.59-2.64,2.39Zm5.29-4.77l-1.99-2.21,2.65-2.38,1.99,2.21-2.65,2.38Zm5.3-4.77l-1.99-2.21c.88-.79,1.76-1.59,2.64-2.39l1.99,2.2c-.88,.8-1.76,1.6-2.65,2.39Zm5.29-4.79l-2-2.19c.88-.8,1.75-1.6,2.62-2.41l2.02,2.18c-.87,.81-1.75,1.61-2.63,2.42Zm5.25-4.85l-2.03-2.17c.86-.81,1.72-1.62,2.58-2.44l2.05,2.15c-.86,.82-1.73,1.64-2.6,2.46Zm5.17-4.94l-2.07-2.13c.85-.83,1.69-1.66,2.52-2.49l2.1,2.1c-.84,.84-1.69,1.68-2.55,2.52Z"/>
        <path class="cls-3" d="M163.88,433.2c-.28-1.15-.56-2.3-.85-3.45l2.88-.73c.29,1.16,.58,2.32,.86,3.48l-2.89,.7Zm-1.74-6.87c-.33-1.2-.64-2.32-.96-3.39l2.85-.84c.33,1.1,.65,2.24,.98,3.46l-2.87,.78Zm-2.01-6.75c-.38-1.14-.76-2.25-1.16-3.31l2.78-1.03c.41,1.09,.81,2.24,1.19,3.42l-2.82,.93Zm-2.45-6.56c-.46-1.08-.94-2.15-1.44-3.18l2.67-1.29c.52,1.07,1.02,2.19,1.5,3.32l-2.74,1.16Zm-3.04-6.27c-.57-1.03-1.17-2.03-1.78-2.98l2.5-1.6c.64,1,1.27,2.06,1.87,3.14l-2.6,1.44Zm-3.74-5.82c-.69-.93-1.42-1.83-2.16-2.68l2.24-1.95c.79,.91,1.57,1.87,2.31,2.86l-2.38,1.77Zm-4.53-5.18c-.81-.78-1.68-1.55-2.57-2.29l1.88-2.3c.96,.78,1.88,1.61,2.75,2.45l-2.07,2.13Zm-5.32-4.37c-.92-.64-1.9-1.28-2.9-1.89l1.54-2.54c1.06,.64,2.1,1.31,3.07,2l-1.7,2.43Zm-5.93-3.59c-1-.52-2.05-1.04-3.13-1.54l1.25-2.69c1.13,.52,2.22,1.06,3.26,1.61l-1.38,2.63Zm-6.34-2.95c-1.03-.43-2.13-.86-3.27-1.28l1.04-2.78c1.17,.44,2.3,.88,3.37,1.32l-1.13,2.74Zm-6.59-2.47c-1.11-.38-2.23-.75-3.36-1.11l.91-2.83c1.14,.37,2.28,.74,3.41,1.13l-.97,2.81Zm-6.74-2.18c-1.14-.35-2.27-.69-3.4-1.04l.86-2.84c1.14,.34,2.28,.69,3.42,1.04l-.87,2.84Z"/>
      </g>
    </g>
    <g class="cls-1">
      <path class="cls-5" d="M46.65,168.07c2.7-1.76,7.34-1.99,15.5-2.24-8.15-.25-12.8-.48-15.5-2.24,.8-1.81,2.53-3.91,5.2-6.97-3.06,2.66-5.16,4.39-6.97,5.2-1.76-2.7-1.99-7.34-2.24-15.5-.25,8.15-.48,12.8-2.24,15.5-1.81-.8-3.91-2.53-6.97-5.2,2.66,3.06,4.39,5.16,5.2,6.97-2.7,1.76-7.34,1.99-15.5,2.24,8.15,.25,12.8,.48,15.5,2.24-.8,1.81-2.53,3.91-5.2,6.97,3.06-2.66,5.16-4.39,6.97-5.2,1.76,2.7,1.99,7.34,2.24,15.5,.25-8.15,.48-12.8,2.24-15.5,1.81,.8,3.91,2.53,6.97,5.2-2.66-3.06-4.39-5.16-5.2-6.97Z"/>
      <path class="cls-5" d="M100.34,88.47c4.13-2.7,11.24-3.05,23.72-3.43-12.48-.38-19.59-.73-23.72-3.43,1.23-2.77,3.88-5.99,7.95-10.67-4.68,4.07-7.89,6.72-10.67,7.95-2.7-4.13-3.05-11.24-3.43-23.72-.38,12.48-.73,19.59-3.43,23.72-2.77-1.23-5.99-3.88-10.67-7.95,4.07,4.68,6.72,7.89,7.95,10.67-4.13,2.7-11.24,3.05-23.72,3.43,12.48,.38,19.59,.73,23.72,3.43-1.23,2.77-3.88,5.99-7.95,10.67,4.68-4.07,7.89-6.72,10.67-7.95,2.7,4.13,3.05,11.24,3.43,23.72,.38-12.48,.73-19.59,3.43-23.72,2.77,1.23,5.99,3.88,10.67,7.95-4.07-4.68-6.72-7.89-7.95-10.67Z"/>
      <path class="cls-5" d="M142.38,27.82c2.43-1.59,6.63-1.8,13.99-2.03-7.36-.23-11.56-.43-13.99-2.03,.73-1.64,2.29-3.53,4.69-6.29-2.76,2.4-4.66,3.97-6.29,4.69-1.59-2.43-1.8-6.63-2.03-13.99-.23,7.36-.43,11.56-2.03,13.99-1.64-.73-3.53-2.29-6.29-4.69,2.4,2.76,3.97,4.66,4.69,6.29-2.43,1.59-6.63,1.8-13.99,2.03,7.36,.23,11.56,.43,13.99,2.03-.73,1.64-2.29,3.53-4.69,6.29,2.76-2.4,4.66-3.97,6.29-4.69,1.59,2.43,1.8,6.63,2.03,13.99,.23-7.36,.43-11.56,2.03-13.99,1.64,.73,3.53,2.29,6.29,4.69-2.4-2.76-3.97-4.66-4.69-6.29Z"/>
      <path class="cls-5" d="M431.57,353.54c2.43-1.59,6.63-1.8,13.99-2.03-7.36-.23-11.56-.43-13.99-2.03,.73-1.64,2.29-3.53,4.69-6.29-2.76,2.4-4.66,3.97-6.29,4.69-1.59-2.43-1.8-6.63-2.03-13.99-.23,7.36-.43,11.56-2.03,13.99-1.64-.73-3.53-2.29-6.29-4.69,2.4,2.76,3.97,4.66,4.69,6.29-2.43,1.59-6.63,1.8-13.99,2.03,7.36,.23,11.56,.43,13.99,2.03-.73,1.64-2.29,3.53-4.69,6.29,2.76-2.4,4.66-3.97,6.29-4.69,1.59,2.43,1.8,6.63,2.03,13.99,.23-7.36,.43-11.56,2.03-13.99,1.64,.73,3.53,2.29,6.29,4.69-2.4-2.76-3.97-4.66-4.69-6.29Z"/>
      <path class="cls-5" d="M371.42,395.71c4.13-2.7,11.24-3.05,23.72-3.43-12.48-.38-19.59-.73-23.72-3.43,1.23-2.77,3.88-5.99,7.95-10.67-4.68,4.07-7.89,6.72-10.67,7.95-2.7-4.13-3.05-11.24-3.43-23.72-.38,12.48-.73,19.59-3.43,23.72-2.77-1.23-5.99-3.88-10.67-7.95,4.07,4.68,6.72,7.89,7.95,10.67-4.13,2.7-11.24,3.05-23.72,3.43,12.48,.38,19.59,.73,23.72,3.43-1.23,2.77-3.88,5.99-7.95,10.67,4.68-4.07,7.89-6.72,10.67-7.95,2.7,4.13,3.05,11.24,3.43,23.72,.38-12.48,.73-19.59,3.43-23.72,2.77,1.23,5.99,3.88,10.67,7.95-4.07-4.68-6.72-7.89-7.95-10.67Z"/>
      <path class="cls-5" d="M332.31,463.88c2.7-1.76,7.34-1.99,15.5-2.24-8.15-.25-12.8-.48-15.5-2.24,.8-1.81,2.53-3.91,5.2-6.97-3.06,2.66-5.16,4.39-6.97,5.2-1.76-2.7-1.99-7.34-2.24-15.5-.25,8.15-.48,12.8-2.24,15.5-1.81-.8-3.91-2.53-6.97-5.2,2.66,3.06,4.39,5.16,5.2,6.97-2.7,1.76-7.34,1.99-15.5,2.24,8.15,.25,12.8,.48,15.5,2.24-.8,1.81-2.53,3.91-5.2,6.97,3.06-2.66,5.16-4.39,6.97-5.2,1.76,2.7,1.99,7.34,2.24,15.5,.25-8.15,.48-12.8,2.24-15.5,1.81,.8,3.91,2.53,6.97,5.2-2.66-3.06-4.39-5.16-5.2-6.97Z"/>
    </g>
  </g>
</svg>