<svg viewBox="0 0 512 512" xmlns="http://www.w3.org/2000/svg"><path d="M175.1 240c17.8 0 32.09-14.25 32.09-32s-14.29-32-32.09-32c-17.68 0-31.97 14.25-31.97 32s15.17 32 31.97 32zm-4.7 34.8c-11.38 15.38-36.33 50.63-36.33 68.13C134.1 365.6 152.8 384 175.1 384c23.25 0 42.02-18.38 42.02-41.13 0-17.5-24.95-52.75-36.33-68.13-2.09-3.64-7.59-3.64-10.39.06zM336 176c-17.8 0-32.09 14.25-32.09 32s14.29 32 32.09 32c17.68 0 31.97-14.25 31.97-32S353.7 176 336 176zm-72.9 128c-13.2 0-23.98 10.75-23.98 24s11.68 24 23.98 24c23.86 0 46.26 10.5 61.64 28.75 8.113 9.875 23.13 12 33.79 3.125 10.17-8.5 11.62-23.62 3.027-33.75C337.1 320.8 302.1 304 263.1 304zM256 0C114.6 0 0 114.6 0 256s114.6 256 256 256 256-114.6 256-256S397.4 0 256 0zm0 464c-114.7 0-208-93.31-208-208S141.3 48 256 48s208 93.31 208 208-93.3 208-208 208z" fill="#5325a0" class="fill-000000"></path></svg>