<?xml version="1.0" encoding="utf-8"?>
<!-- Svg Vector Icons : http://www.onlinewebfonts.com/icon -->
<!DOCTYPE svg PUBLIC "-//W3C//DTD SVG 1.1//EN" "http://www.w3.org/Graphics/SVG/1.1/DTD/svg11.dtd">
<svg version="1.1" xmlns="http://www.w3.org/2000/svg" xmlns:xlink="http://www.w3.org/1999/xlink" x="0px" y="0px" viewBox="0 0 256 256" enable-background="new 0 0 256 256" xml:space="preserve">
<metadata> Svg Vector Icons : http://www.onlinewebfonts.com/icon </metadata>
<g><g><g><path fill="#000000" d="M40.5,10.6c-7.1,2-12.7,7.9-14.3,15c-0.4,1.9-0.5,27.5-0.4,104.1L26,231.3l1.7,3.5c2.1,4.3,5.6,7.8,9.9,9.8l3.1,1.5h87c82.5,0,87.1,0,89.4-0.8c5-1.8,9.7-6.3,11.9-11.5l1-2.4l0.1-81.8l0.1-81.8l-1.1-1.3l-1.1-1.3l-22.3-0.2c-15.7-0.2-22.7-0.4-23.5-0.8c-2.2-1-4.7-3.6-5.8-5.9c-1.1-2.2-1.1-2.7-1.1-13.7c0-11.6-0.1-12.8-1.8-14c-0.4-0.3-1.5-0.6-2.4-0.6c-1.3,0-1.9,0.3-2.6,1.2c-0.9,1.2-1,1.8-1,13.3c0,13.3,0.3,15.2,2.8,19.2c3.2,5,8.3,8.3,14.2,9.1c1.7,0.2,10.9,0.5,20.5,0.5h17.4l-0.1,78.3l-0.1,78.3l-1,1.8c-1.3,2.4-3.1,4.2-5.5,5.5l-1.8,1H128c-82.8,0-85.9,0-87.4-0.9c-2.3-1.2-4.5-3.4-5.7-5.6l-1-1.8V128.1V26.4l1-1.8c2-3.8,5.5-6.1,9.6-6.6c3-0.3,4.8-1.8,4.8-4C49.3,10.5,45.8,9.2,40.5,10.6z"/><path fill="#000000" d="M58.5,11.3l-1.3,1.3v11.9v11.9l-1.6,2.2c-3.7,5.1-6.2,12.6-6.2,18.7c0,5.4,2.2,12.6,5.2,17l1.2,1.8l-1.6,1.9c-6.4,7.8-6.3,21.5,0.2,29.5c1.2,1.6,1.3,1.9,0.8,2.5c-1.3,1.5-3.5,6-4.5,9.3c-1.5,5.1-1.5,13.1,0.2,18.1c1.2,3.6,4.3,9.3,5.6,10.5c0.6,0.5,0.7,1.9,0.7,8.4c0,9.8,0.5,11,4.2,11c0.8,0,1.8-0.5,2.5-1.2c1.1-1,1.2-1.4,1.2-6v-4.8l2.9,1.3c4.5,2.1,8.9,3,14.6,2.6c8.5-0.4,14.3-3,20.6-9.3c6.1-6,9-13.1,9-21.9c0-8.8-2.9-15.8-9-21.9c-6.3-6.3-12.2-9-20.4-9.4c-7.2-0.3-12.3,0.9-18.3,4.6c-3,1.8-3.2,1.8-4,1.1c-2.4-2.2-3.7-8.7-2.8-13.4c0.5-2.6,2.3-6.3,3.2-6.9c0.3-0.1,1.7,0.6,3.3,1.6c3,1.9,6.4,3.4,10.1,4.2c3.3,0.8,10.9,0.7,14.4-0.2c11.2-3,19.6-11.4,22.7-22.7c0.8-3.1,1-4.5,0.8-9.2c-0.2-4.8-0.4-6.1-1.6-9.3c-1.8-4.8-4.2-8.5-7.8-11.9c-9.2-8.9-23.2-11.4-34.3-6.2c-1.6,0.7-3,1.4-3.1,1.4c-0.1,0-0.2-2.7-0.2-6v-6h52.2h52.3l19.6,19.6c18.6,18.6,19.7,19.6,21.3,19.6c2.2,0,3.6-1.2,3.9-3.4l0.3-1.8L193.7,31l-21-21h-56.4H59.8L58.5,11.3z M88.2,34.9c9.7,3.3,16.1,12.1,16.1,22.2c0,6.6-1.9,11.5-6.5,16.4c-13.4,14.3-37.4,6.5-40.2-13.1C55.1,43.5,72.1,29.3,88.2,34.9z M85.8,105.1c6,1.2,12.8,6.3,15.7,11.8c2.5,4.6,3.4,11.6,2.2,16.8c-1.8,7.8-8.1,14.4-16,16.9c-12,3.8-24.9-2.7-29.3-14.9c-1.5-4-1.5-10.9,0-15C62.4,109.3,74,102.6,85.8,105.1z"/><path fill="#000000" d="M83.6,43.9c-1,0.8-1.3,1.5-1.3,2.7c0,1.4,0.4,2.1,2.8,4.4c1.5,1.5,3.2,3.3,3.7,3.9c1.9,2.3,5.7,1.2,6.4-1.8c0.6-2.2-2-6.3-5.5-8.7C87,42.5,85.4,42.3,83.6,43.9z"/><path fill="#000000" d="M84.6,114c-3.1,1.3-3,5.3,0,7.2c0.8,0.5,1.9,1.4,2.4,2.1c1.8,2.7,2.9,3.5,4.6,3.5c2,0,3.9-1.7,3.9-3.5c0-3.1-4.8-8.6-8.5-9.6C86.4,113.5,85.3,113.7,84.6,114z"/><path fill="#000000" d="M121.7,105.5c-0.6,0.5-1.3,1.4-1.4,2c-0.3,1.7,0.8,3.9,2.2,4.4c1.6,0.6,17.3,0.6,18.9,0c1.6-0.6,2.7-3.2,2.1-4.8c-0.9-2.4-1.8-2.6-11.6-2.6C123.5,104.6,122.7,104.7,121.7,105.5z"/><path fill="#000000" d="M152.9,105.7c-1.2,1.1-1.5,3-0.9,4.6c0.7,1.9,2.1,2.1,19.6,2.1h16.7l1.3-1.3c1.7-1.7,1.7-3.2,0.1-5.1l-1.2-1.4h-17.3H154L152.9,105.7z"/><path fill="#000000" d="M126.1,128.7c-2.2,1.1-2.6,4.2-0.8,6.1l1.2,1.2h11.2c11.1,0,11.2,0,12.5-1.1c1-0.8,1.3-1.5,1.3-2.8s-0.3-2-1.3-2.8c-1.2-1.1-1.3-1.1-12.2-1.1C131.5,128.2,126.6,128.4,126.1,128.7z"/><path fill="#000000" d="M160.7,129.3c-0.8,0.7-1.2,1.6-1.2,2.8c0,1.2,0.4,2,1.2,2.8c1.1,1.2,1.2,1.2,10.4,1.2h9.3l1.3-1.3c0.8-0.8,1.3-1.8,1.3-2.6c0-0.7-0.6-1.8-1.3-2.6l-1.3-1.3h-9.3C161.9,128.1,161.8,128.1,160.7,129.3z"/><path fill="#000000" d="M117.5,153c-1.7,1.8-1.8,3.8-0.2,5.4l1.1,1.2h31.1c23.7,0,31.2-0.2,31.8-0.6c2.1-1.6,2.2-4.7,0.1-6.3c-1.2-0.9-1.8-0.9-31.8-0.9h-30.7L117.5,153z"/><path fill="#000000" d="M67,176.1c-1.8,1.1-2.3,3.1-1.3,5c0.4,0.7,1.1,1.5,1.4,1.7c0.4,0.1,6.7,0.3,14,0.3h13.3l1-1.1c1.4-1.5,1.3-4-0.2-5.4l-1.2-1.1l-12.7-0.1C69.2,175.2,68.4,175.2,67,176.1z"/><path fill="#000000" d="M106.7,175.8c-1.9,0.8-2.7,2.7-2.1,4.7c0.3,0.9,0.9,1.8,1.4,2c1.4,0.7,43,0.6,43.9-0.2c2.3-1.7,1.8-5.4-0.8-6.5C147,174.9,108.8,174.9,106.7,175.8z"/><path fill="#000000" d="M162.3,175.5c-2.8,1-3.7,4.6-1.7,6.5c1.1,1,1.3,1,14.3,1c7.3,0,13.6-0.1,14-0.3c0.4-0.2,1.1-0.9,1.4-1.7c1-1.9,0.5-3.9-1.3-5c-1.4-0.8-2.4-0.9-13.7-0.8C168.5,175.2,162.7,175.4,162.3,175.5z"/><path fill="#000000" d="M66.4,200.1c-1.9,1.9-1.5,5.1,0.9,6.3c0.9,0.5,6.7,0.6,25,0.6c24.5,0,26.3-0.1,27.2-1.8c0.8-1.6,0.6-3.9-0.6-5l-1.1-1H92.5C68,199.2,67.3,199.2,66.4,200.1z"/><path fill="#000000" d="M129.3,200.2c-1.1,1.2-1.4,2.4-0.9,4.2c0.7,2.6,1.2,2.7,23.2,2.7c22.1,0,22.1,0,23.3-2.8c0.7-1.6,0-3.9-1.4-4.6c-0.5-0.3-9.3-0.5-22-0.5h-21.2L129.3,200.2z"/></g></g></g>
</svg>