<?xml version="1.0" encoding="UTF-8"?>
<svg id="Capa_2" data-name="Capa 2" xmlns="http://www.w3.org/2000/svg" viewBox="0 0 45.94 45.94">
  <defs>
    <style>
      .cls-1 {
        fill: #fbfbfb;
      }
    </style>
  </defs>
  <g id="Capa_1-2" data-name="Capa 1">
    <g>
      <path class="cls-1" d="M29.82,12.22h-13.69c-2.19,0-3.96,1.78-3.96,3.96v13.69c0,2.19,1.78,3.96,3.96,3.96h13.69c2.19,0,3.96-1.78,3.96-3.96v-13.69c0-2.19-1.78-3.96-3.96-3.96Zm-6.85,17.93c-3.92,0-7.12-3.19-7.12-7.12s3.19-7.12,7.12-7.12,7.12,3.19,7.12,7.12-3.19,7.12-7.12,7.12Zm7.35-12.76c-.93,0-1.68-.76-1.68-1.68s.76-1.68,1.68-1.68,1.68,.76,1.68,1.68-.76,1.68-1.68,1.68Z"/>
      <path class="cls-1" d="M22.97,18.92c-2.27,0-4.11,1.84-4.11,4.11s1.84,4.11,4.11,4.11,4.11-1.84,4.11-4.11-1.84-4.11-4.11-4.11Z"/>
      <path class="cls-1" d="M22.97,0C10.29,0,0,10.29,0,22.97s10.29,22.97,22.97,22.97,22.97-10.29,22.97-22.97S35.66,0,22.97,0Zm13.82,29.88c0,3.84-3.13,6.97-6.97,6.97h-13.69c-3.84,0-6.97-3.13-6.97-6.97v-13.69c0-3.84,3.13-6.97,6.97-6.97h13.69c3.84,0,6.97,3.13,6.97,6.97v13.69Z"/>
    </g>
  </g>
</svg>