<?xml version="1.0" encoding="UTF-8"?>
<svg id="Capa_2" data-name="Capa 2" xmlns="http://www.w3.org/2000/svg" viewBox="0 0 45.94 45.91">
  <defs>
    <style>
      .cls-1 {
        fill: #fbfbfb;
      }
    </style>
  </defs>
  <g id="Capa_1-2" data-name="Capa 1">
    <path class="cls-1" d="M24.86,45.91h-3.77c-.72-.11-1.45-.17-2.17-.32-9.14-1.91-15.15-7.32-18.04-16.17-.48-1.48-.69-3.02-.88-4.56v-3.76c.18-1.56,.43-3.1,.88-4.6C4.31,5.14,15.49-1.84,27.15,.43c9.25,1.8,15.22,7.48,18.02,16.46,.43,1.37,.61,2.79,.77,4.21v3.76c-.08,.56-.13,1.12-.24,1.68-1.79,9.36-7.22,15.52-16.29,18.49-1.48,.48-3.02,.69-4.57,.87Zm-5.36-18.98c0,2.49,0,4.98,0,7.48,0,.42,.13,.58,.57,.58,1.21-.02,2.42,0,3.63,0,.68,0,.68,0,.69-.67,0-2.55,0-5.1,0-7.66,0-.83,.12-1.64,.51-2.38,.52-1,1.66-1.54,2.89-1.38,1.19,.15,1.84,.76,2.13,1.97,.14,.57,.18,1.15,.18,1.73,0,2.61,0,5.22,0,7.83,0,.41,.13,.56,.54,.55,1.26-.02,2.51,0,3.77,0,.55,0,.59-.04,.59-.59,0-3.13,0-6.27-.02-9.4,0-.88-.14-1.75-.37-2.61-.42-1.55-1.27-2.76-2.83-3.35-1.2-.46-2.46-.53-3.71-.35-1.49,.21-2.69,.95-3.54,2.21-.05,.08-.1,.22-.22,.19-.13-.03-.09-.17-.09-.27,0-.4,0-.81,0-1.21,0-.6-.01-.61-.59-.61-1.17,0-2.33,0-3.5,0-.59,0-.61,.02-.61,.6,0,2.45,0,4.89,0,7.34Zm-3.28,.04c0-2.48,0-4.95,0-7.43,0-.39-.1-.57-.53-.56-1.29,.02-2.57,.02-3.86,0-.4,0-.51,.15-.51,.53,0,4.98,0,9.97,0,14.95,0,.39,.14,.53,.53,.52,1.21-.01,2.42,0,3.63,0q.73,0,.73-.71c0-2.43,0-4.86,0-7.3Zm-2.46-15.97c-1.59,0-2.86,1.26-2.86,2.84,0,1.54,1.31,2.85,2.86,2.85,1.58,0,2.89-1.31,2.88-2.88-.01-1.57-1.29-2.82-2.88-2.81Z"/>
  </g>
</svg>